<svg xmlns="http://www.w3.org/2000/svg" width="171.505" height="139.378" xmlns:v="https://vecta.io/nano"><path d="M171.505 16.499c-6.31 2.799-13.092 4.69-20.209 5.54 7.264-4.355 12.844-11.25 15.471-19.467-6.799 4.033-14.329 6.961-22.345 8.538C138.005 4.273 128.86 0 118.739 0 99.308 0 83.553 15.754 83.553 35.186c0 2.758.311 5.444.912 8.019-29.243-1.467-55.17-15.476-72.525-36.764-3.029 5.197-4.764 11.24-4.764 17.689 0 12.208 6.212 22.977 15.653 29.287-5.768-.183-11.193-1.766-15.937-4.401-.004.147-.004.294-.004.442 0 17.048 12.129 31.268 28.226 34.503-2.952.804-6.061 1.234-9.27 1.234-2.267 0-4.471-.221-6.62-.631 4.478 13.979 17.472 24.151 32.87 24.434-12.042 9.438-27.214 15.063-43.7 15.063A71.56 71.56 0 0 1 0 123.569c15.572 9.984 34.067 15.809 53.938 15.809 64.72 0 100.113-53.615 100.113-100.114a101.56 101.56 0 0 0-.102-4.553c6.874-4.96 12.839-11.156 17.556-18.213z" fill="#2aa9e0"/></svg>